<?xml version="1.0" encoding="UTF-8" standalone="no"?>
<!-- Created with Inkscape (http://www.inkscape.org/) -->

<svg
   width="500"
   height="250"
   viewBox="0 0 500 250"
   version="1.1"
   id="svg1"
   xml:space="preserve"
   sodipodi:docname="bidrush_logo.svg"
   inkscape:version="1.4.1-rc (06eac75fbf, 2025-03-29)"
   inkscape:export-filename="../eeefb11d/bidrush_logo.png"
   inkscape:export-xdpi="192"
   inkscape:export-ydpi="192"
   xmlns:inkscape="http://www.inkscape.org/namespaces/inkscape"
   xmlns:sodipodi="http://sodipodi.sourceforge.net/DTD/sodipodi-0.dtd"
   xmlns="http://www.w3.org/2000/svg"
   xmlns:svg="http://www.w3.org/2000/svg"><sodipodi:namedview
     id="namedview1"
     pagecolor="#ffffff"
     bordercolor="#000000"
     borderopacity="0.25"
     inkscape:showpageshadow="2"
     inkscape:pageopacity="0.0"
     inkscape:pagecheckerboard="0"
     inkscape:deskcolor="#d1d1d1"
     inkscape:document-units="px"
     inkscape:zoom="1"
     inkscape:cx="397"
     inkscape:cy="218"
     inkscape:window-width="1075"
     inkscape:window-height="1010"
     inkscape:window-x="130"
     inkscape:window-y="36"
     inkscape:window-maximized="0"
     inkscape:current-layer="layer1"><sodipodi:guide
       position="0,502"
       orientation="0,512"
       id="guide2"
       inkscape:locked="false" /><sodipodi:guide
       position="511.99999,-10"
       orientation="0,-512"
       id="guide4"
       inkscape:locked="false" /><sodipodi:guide
       position="200,438.48171"
       orientation="-1,0"
       id="guide6"
       inkscape:label=""
       inkscape:locked="false"
       inkscape:color="rgb(0,134,229)" /><sodipodi:guide
       position="100,500"
       orientation="-1,0"
       id="guide7"
       inkscape:label=""
       inkscape:locked="false"
       inkscape:color="rgb(0,134,229)" /><sodipodi:guide
       position="300,500"
       orientation="-1,0"
       id="guide8"
       inkscape:label=""
       inkscape:locked="false"
       inkscape:color="rgb(0,134,229)" /><sodipodi:guide
       position="400,500"
       orientation="-1,0"
       id="guide9"
       inkscape:label=""
       inkscape:locked="false"
       inkscape:color="rgb(0,134,229)" /></sodipodi:namedview><defs
     id="defs1"><rect
       x="58.689861"
       y="254.55844"
       width="342.94678"
       height="201.52544"
       id="rect6" /><rect
       x="53"
       y="115.5"
       width="350.5"
       height="164"
       id="rect5" /><rect
       x="184.78195"
       y="329.78445"
       width="238.0351"
       height="110.35589"
       id="rect2" /><rect
       x="59.027569"
       y="137.94485"
       width="246.37595"
       height="120.62155"
       id="rect1" /></defs><g
     inkscape:label="Layer 1"
     inkscape:groupmode="layer"
     id="layer1"><g
       id="g12"
       transform="translate(-18.331079,-104.87369)"><text
         xml:space="preserve"
         id="text5"
         style="font-size:104.237px;text-align:start;writing-mode:lr-tb;direction:ltr;white-space:pre;shape-inside:url(#rect5);display:inline;fill:#14426b;fill-opacity:1;stroke:#000000;stroke-width:0.999757;stroke-dasharray:none;stroke-opacity:1"
         transform="matrix(1.0872643,0,0,1.0872643,44.86848,30.593465)"><tspan
           x="53"
           y="207.72531"
           id="tspan5"><tspan
             style="font-family:garamond;-inkscape-font-specification:garamond"
             id="tspan4">Bid</tspan></tspan></text><text
         xml:space="preserve"
         id="text6"
         style="font-style:normal;font-variant:normal;font-weight:normal;font-stretch:normal;font-size:104.237px;font-family:garamond;-inkscape-font-specification:garamond;text-align:start;writing-mode:lr-tb;direction:ltr;white-space:pre;shape-inside:url(#rect6);display:inline;fill:#eb4d2c;fill-opacity:1;stroke:#000000;stroke-width:0.999757;stroke-dasharray:none;stroke-opacity:1"
         transform="matrix(1.0872643,0,0,1.0872643,94.851581,-34.162786)"><tspan
           x="58.689453"
           y="346.78391"
           id="tspan6">Rush</tspan></text><path
         style="fill:#14426b;fill-opacity:1;stroke:#000000;stroke-width:1.087;stroke-dasharray:none;stroke-opacity:1"
         d="m 305.66348,244.88531 c -3.68431,-1.40826 -5.50306,-6.53999 -3.71266,-10.05178 1.87492,-3.56766 5.80639,-5.45889 8.58775,-8.29144 7.51085,-6.42822 15.01975,-12.86065 22.67857,-19.11279 -1.28226,-3.3733 -4.69257,-5.66766 -6.78923,-8.65234 -2.39377,-4.61846 -5.99673,0.70449 -9.35519,0.55612 -3.92907,0.1719 -8.01018,-1.95685 -9.41613,-5.75517 -2.24101,-5.29744 1.18965,-10.19453 5.4992,-13.0848 9.12282,-7.98638 17.98982,-16.30324 27.30396,-24.04745 5.15744,-2.76766 12.53507,0.19521 14.05888,5.97062 1.39729,4.83705 -2.16726,8.46025 -4.46128,11.59238 3.39082,4.46024 7.40834,8.52694 11.02615,12.8541 5.23696,6.00886 10.46819,12.02345 15.80312,17.94585 3.49025,-3.64623 9.35451,-4.68977 13.47646,-1.49609 3.56317,2.54604 3.94064,7.50527 2.79417,11.41486 -6.74976,6.87737 -14.50647,12.77173 -21.64058,19.27559 -4.21941,3.53715 -8.10948,7.60546 -12.88262,10.39294 -4.74058,1.02307 -9.94811,-1.10022 -11.79634,-5.80319 -1.36944,-4.52173 0.82572,-8.8138 4.19197,-11.78774 -3.56483,-2.83029 -6.04776,-9.44727 -10.41588,-9.84011 -8.91707,9.32327 -17.93476,18.61413 -27.04867,27.77061 -2.314,1.65178 -5.55579,1.8186 -7.90165,0.14978 z"
         id="path9" /><rect
         style="fill:#14426b;fill-opacity:1;stroke:#000000;stroke-width:1.087;stroke-dasharray:none;stroke-opacity:1"
         id="rect11"
         width="29.368261"
         height="27.9375"
         x="452.31924"
         y="317.09378" /><rect
         style="fill:#eb4d2c;fill-opacity:1;stroke:#000000;stroke-width:1.087;stroke-dasharray:none;stroke-opacity:1"
         id="rect12"
         width="22.25"
         height="85.75"
         x="163.18286"
         y="-0.63141346"
         transform="rotate(45)" /></g></g></svg>
